<svg xmlns="http://www.w3.org/2000/svg" xmlns="http://www.w3.org/2000/svg" width="24" height="24" viewBox="0 0 24 24" fill="none" stroke="currentColor" stroke-width="2" stroke-linecap="round" stroke-linejoin="round" data-om-id="jsx:/https:/019df7cf-a343-7791-99a2-c1ace8629ec5.claudeusercontent.com/v1/design/projects/019df7cf-a343-7791-99a2-c1ace8629ec5/serve/app/icons.jsx:476:12:10"><path d="M9 4a3 3 0 0 0-3 3v1a3 3 0 0 0-3 3 3 3 0 0 0 3 3v1a3 3 0 0 0 3 3 3 3 0 0 0 3-3V7a3 3 0 0 0-3-3zM15 4a3 3 0 0 1 3 3v1a3 3 0 0 1 3 3 3 3 0 0 1-3 3v1a3 3 0 0 1-3 3 3 3 0 0 1-3-3V7a3 3 0 0 1 3-3z" data-om-id="jsx:/https:/019df7cf-a343-7791-99a2-c1ace8629ec5.claudeusercontent.com/v1/design/projects/019df7cf-a343-7791-99a2-c1ace8629ec5/serve/app/icons.jsx:7225:70:16"/></svg>